# xmcd CD database file
#
# Track frame offsets:
#	150
#	17178
#	36010
#	54766
#	72035
#	97666
#	116185
#	133790
#	161055
#	179684
#	210503
#	226385
#	243629
#	271507
#	290558
#
# Disc length: 4092 seconds
#
# Revision: 0
# Processed by: cddbd v1.5.2PL0 Copyright (c) Steve Scherf et al.
# Submitted via: CDex 1.51
#
DISCID=cf0ffa0f
DTITLE=Big Creek Slim - Good Mill Blues Greasy Chicken Sessions Vol. 1
DYEAR=2017
DGENRE=Blues
TTITLE0=North Street Blues
TTITLE1=Fixin' To Die
TTITLE2=Good Mill Blues
TTITLE3=Black Rat Swing
TTITLE4=Walking Blues
TTITLE5=I Still Love You
TTITLE6=Canned Heat Blues
TTITLE7=Pea Vine Blues
TTITLE8=Blues In The Bottle
TTITLE9=The Big C Moan
TTITLE10=Kokomo Blues
TTITLE11=Baileys Blues
TTITLE12=Louisiana Blues
TTITLE13=If Women Were Like Dogs
TTITLE14=Down In The Bottom
EXTD=YEAR: 2017
EXTT0=
EXTT1=
EXTT2=
EXTT3=
EXTT4=
EXTT5=
EXTT6=
EXTT7=
EXTT8=
EXTT9=
EXTT10=
EXTT11=
EXTT12=
EXTT13=
EXTT14=
PLAYORDER=
